<svg version="1" xmlns="http://www.w3.org/2000/svg" width="1066.667" height="1066.667" viewBox="0 0 800.000000 800.000000"><path d="M68.3 100.8l-2.3.3.1 299c0 234.7.2 298.9 1.2 299h56l2.7-.1-.2-299.1-.3-299.1-27.5-.1c-15.1-.1-28.5-.1-29.7.1zM267.5 101l-4.1.5.1 298.7c0 266.6.1 298.8 1.5 298.9 9.4.3 59 0 59.7-.4.4-.3.8-102 .7-226.1 0-124.1.3-225.6.8-225.6.4 0 .8.3.8.7 0 .5 1.5 2.4 3.3 4.3 2.8 3.1 11.6 13 19.8 22.5 46.4 53.3 60.7 69.6 63.3 72.5 1.7 1.9 7.4 8.4 12.6 14.5 5.2 6 9.7 11.2 10 11.5.4.4 12.3 14.1 22.6 26 4.1 4.8 25.7 29.5 31.4 36 3.2 3.6 14 15.9 24 27.5 10.1 11.5 20.9 23.9 24 27.5 12.1 13.8 26.9 30.8 33.4 38.5 3.8 4.4 7.4 8.4 8 9 .6.5 3.5 3.9 6.5 7.5s6.4 7.5 7.5 8.6c1.2 1.2 3.9 4.3 6.1 6.9 2.2 2.7 4.5 5.3 5 5.9 1.5 1.7 13.8 15.7 17.1 19.5 1.6 1.9 3.4 3.9 3.9 4.5.6.6 7.3 8.3 14.9 17.1 7.6 8.8 15.2 17.5 16.8 19.3 1.7 1.9 6 6.8 9.6 11 3.7 4.3 6.9 7.9 7.2 8.2.3.3 4.8 5.4 10 11.5 8.6 10 13.7 15.8 16.5 18.9.6.6 5.2 5.9 10.3 11.8 5.1 5.9 10 10.8 10.9 11 .9.2 4 .1 6.9 0l5.3-.4-.2-299-.2-299h-58l-.5 229.1-.5 229.2-5.1-5.8c-2.8-3.2-11.5-13.2-19.3-22.3-7.9-9.1-15.5-17.9-17-19.5-1.4-1.7-5.3-6.2-8.6-10-5.2-6.1-9.5-11-13-14.9-.5-.6-5.3-6.1-10.5-12.1-5.2-6.1-9.7-11.2-10-11.5-.3-.3-3.2-3.7-6.5-7.5-3.3-3.9-6.4-7.5-7-8.1-.5-.6-6.2-7.1-12.5-14.4-6.3-7.4-15.1-17.4-19.4-22.4-4.3-5-10.4-12-13.5-15.6-3.1-3.5-7.4-8.5-9.6-11-2.2-2.5-6.7-7.7-10-11.5-3.3-3.9-6.2-7.2-6.5-7.5-.3-.3-4.8-5.5-10-11.5-5.2-6.1-9.7-11.2-10-11.5-.6-.5-23.7-27.2-28.1-32.4-1.3-1.6-2.8-3.4-3.4-4-4-4.5-21.5-24.6-23.1-26.5-1-1.3-3-3.5-4.2-5-2.6-2.9-7.2-8.1-23.6-27-6-6.9-12.3-14.2-14-16.1-3.3-3.7-7.1-8.1-15.1-17.5-2.7-3.2-5.4-6.3-6-6.9-.5-.6-3.9-4.5-7.5-8.6s-6.7-7.7-7-8c-.3-.3-3.2-3.6-6.5-7.5-6.7-7.8-9-10.4-16.1-18.5-2.6-3-5.7-6.6-6.9-7.9-2.7-3.3-15.7-18.3-17-19.7-.5-.6-6.4-7.3-13-15-17.6-20.3-17.8-20.5-20.5-20.7-1.4-.1-4.3 0-6.5.3z"/></svg>